<svg xmlns="http://www.w3.org/2000/svg" viewBox="0 0 200 180" fill="none">
  <!-- Stems - thin golden-brown lines -->
  <g stroke="#9B8B6E" stroke-width="1.2" stroke-linecap="round" opacity="0.7">
    <path d="M100 170 Q95 140 80 110"/>
    <path d="M100 170 Q105 135 120 105"/>
    <path d="M80 110 Q70 95 55 80"/>
    <path d="M80 110 Q85 90 75 70"/>
    <path d="M120 105 Q130 85 145 75"/>
    <path d="M120 105 Q115 85 125 65"/>
    <path d="M55 80 Q45 70 35 55"/>
    <path d="M55 80 Q60 65 50 50"/>
    <path d="M75 70 Q65 55 70 40"/>
    <path d="M145 75 Q155 60 165 50"/>
    <path d="M145 75 Q140 55 150 40"/>
    <path d="M125 65 Q130 50 120 35"/>
    <path d="M100 170 Q100 145 100 120"/>
    <path d="M100 120 Q95 100 90 85"/>
    <path d="M90 85 Q85 70 95 55"/>
  </g>
  <!-- Buds - small cream/white circles -->
  <g>
    <circle cx="35" cy="52" r="5" fill="#F5F0E8" opacity="0.9"/>
    <circle cx="33" cy="54" r="4.5" fill="#EDE8DC" opacity="0.7"/>
    <circle cx="48" cy="47" r="4" fill="#F2EDE4" opacity="0.85"/>
    <circle cx="70" cy="37" r="5.5" fill="#F5F0E8" opacity="0.9"/>
    <circle cx="68" cy="39" r="4" fill="#EDE8DC" opacity="0.6"/>
    <circle cx="95" cy="52" r="4.5" fill="#F5F0E8" opacity="0.88"/>
    <circle cx="120" cy="32" r="5" fill="#F2EDE4" opacity="0.9"/>
    <circle cx="118" cy="34" r="4" fill="#EDE8DC" opacity="0.65"/>
    <circle cx="150" cy="37" r="5" fill="#F5F0E8" opacity="0.9"/>
    <circle cx="148" cy="39" r="4.5" fill="#EDE8DC" opacity="0.7"/>
    <circle cx="165" cy="47" r="4.5" fill="#F2EDE4" opacity="0.85"/>
    <circle cx="163" cy="49" r="3.5" fill="#EDE8DC" opacity="0.6"/>
    <circle cx="88" cy="82" r="4" fill="#F5F0E8" opacity="0.8"/>
    <circle cx="55" cy="76" r="3.5" fill="#F2EDE4" opacity="0.75"/>
  </g>
  <!-- Subtle highlight dots on buds -->
  <g fill="#FFFDF8" opacity="0.5">
    <circle cx="34" cy="50" r="1.5"/>
    <circle cx="69" cy="35" r="1.5"/>
    <circle cx="119" cy="30" r="1.5"/>
    <circle cx="149" cy="35" r="1.5"/>
    <circle cx="164" cy="45" r="1.5"/>
    <circle cx="94" cy="50" r="1.5"/>
  </g>
</svg>
