<svg xmlns="http://www.w3.org/2000/svg" viewBox="0 0 500 500" fill="none">
  <!-- Bottom-left botanical branch — white line art, mirrored from top-right -->
  <g stroke="white" stroke-width="1.8" stroke-linecap="round" stroke-linejoin="round" opacity="0.85">
    <!-- Main branch curving from lower-left toward center-right -->
    <path d="M20 480 C60 440, 120 390, 190 340 C240 300, 300 260, 340 220"/>

    <!-- Lower leaves cluster -->
    <path d="M40 465 C50 480, 70 485, 80 470 C70 465, 50 460, 40 465"/>
    <path d="M55 450 C60 468, 80 475, 90 458 C80 452, 60 445, 55 450"/>
    <path d="M30 445 C35 460, 45 465, 55 452 C48 445, 35 440, 30 445"/>

    <!-- Mid-lower leaves -->
    <path d="M80 425 C95 442, 115 445, 122 428 C110 420, 88 418, 80 425"/>
    <path d="M70 410 C75 428, 90 435, 100 420 C90 412, 75 405, 70 410"/>
    <path d="M105 400 C118 415, 135 418, 142 402 C132 395, 112 392, 105 400"/>

    <!-- Middle cluster -->
    <path d="M125 370 C140 388, 160 392, 168 375 C155 365, 132 362, 125 370"/>
    <path d="M115 355 C122 372, 138 378, 148 362 C138 352, 120 348, 115 355"/>
    <path d="M150 345 C162 360, 180 362, 185 348 C175 340, 155 338, 150 345"/>

    <!-- Upper-middle leaves -->
    <path d="M170 320 C185 335, 202 338, 210 322 C200 314, 178 312, 170 320"/>
    <path d="M160 305 C168 322, 182 328, 192 314 C184 304, 166 300, 160 305"/>
    <path d="M195 295 C208 310, 225 312, 230 298 C220 290, 200 288, 195 295"/>

    <!-- Upper leaves -->
    <path d="M220 270 C232 285, 248 287, 254 272 C245 265, 225 263, 220 270"/>
    <path d="M240 252 C250 266, 264 270, 272 256 C263 248, 245 245, 240 252"/>

    <!-- Tip leaves -->
    <path d="M265 240 C275 252, 288 255, 294 242 C286 235, 270 233, 265 240"/>
    <path d="M300 222 C308 234, 320 236, 325 225 C318 218, 304 216, 300 222"/>
    <path d="M325 210 C332 220, 342 222, 346 212 C340 206, 328 205, 325 210"/>

    <!-- Small secondary branch sprouting downward -->
    <path d="M120 390 C110 415, 90 430, 75 445"/>
    <path d="M105 412 C98 428, 92 435, 82 442"/>

    <!-- Small bud details -->
    <path d="M340 220 C345 225, 352 226, 354 220"/>
    <path d="M20 480 C15 485, 10 488, 5 490"/>
  </g>
</svg>
