<svg xmlns="http://www.w3.org/2000/svg" viewBox="0 0 500 600" fill="none">
  <!-- Top-right botanical branch — white line art, matching BG1.jpg -->
  <g stroke="white" stroke-width="1.8" stroke-linecap="round" stroke-linejoin="round" opacity="0.85">
    <!-- Main branch curving from upper-right toward center-left -->
    <path d="M480 20 C440 60, 380 110, 310 160 C260 200, 200 240, 160 280"/>

    <!-- Upper leaves cluster -->
    <path d="M460 35 C450 20, 430 15, 420 30 C430 35, 450 40, 460 35"/>
    <path d="M445 50 C440 32, 420 25, 410 42 C420 48, 440 55, 445 50"/>
    <path d="M470 55 C465 40, 455 35, 445 48 C452 55, 465 60, 470 55"/>

    <!-- Mid-upper leaves -->
    <path d="M420 75 C405 58, 385 55, 378 72 C390 80, 412 82, 420 75"/>
    <path d="M430 90 C425 72, 410 65, 400 80 C410 88, 425 95, 430 90"/>
    <path d="M395 100 C382 85, 365 82, 358 98 C368 105, 388 108, 395 100"/>

    <!-- Middle cluster -->
    <path d="M375 130 C360 112, 340 108, 332 125 C345 135, 368 138, 375 130"/>
    <path d="M385 145 C378 128, 362 122, 352 138 C362 148, 380 152, 385 145"/>
    <path d="M350 155 C338 140, 320 138, 315 152 C325 160, 345 162, 350 155"/>

    <!-- Lower-middle leaves -->
    <path d="M330 180 C315 165, 298 162, 290 178 C300 186, 322 188, 330 180"/>
    <path d="M340 195 C332 178, 318 172, 308 186 C316 196, 334 200, 340 195"/>
    <path d="M305 205 C292 190, 275 188, 270 202 C280 210, 300 212, 305 205"/>

    <!-- Lower leaves -->
    <path d="M280 230 C268 215, 252 213, 246 228 C255 235, 275 237, 280 230"/>
    <path d="M260 248 C250 234, 236 230, 228 244 C237 252, 255 255, 260 248"/>

    <!-- Tip leaves -->
    <path d="M235 260 C225 248, 212 245, 206 258 C214 265, 230 267, 235 260"/>
    <path d="M200 278 C192 266, 180 264, 175 275 C182 282, 196 284, 200 278"/>
    <path d="M175 290 C168 280, 158 278, 154 288 C160 294, 172 295, 175 290"/>

    <!-- Small secondary branch sprouting upward -->
    <path d="M380 110 C390 85, 410 70, 425 55"/>
    <path d="M395 88 C402 72, 408 65, 418 58"/>

    <!-- Small bud details -->
    <path d="M160 280 C155 275, 148 274, 146 280"/>
    <path d="M480 20 C485 15, 490 12, 495 10"/>
  </g>
</svg>
