<svg xmlns="http://www.w3.org/2000/svg" viewBox="0 0 500 500" fill="none">
  <defs>
    <filter id="wc" x="-20%" y="-20%" width="140%" height="140%">
      <feGaussianBlur in="SourceGraphic" stdDeviation="1.2" />
    </filter>
    <filter id="wc-soft" x="-20%" y="-20%" width="140%" height="140%">
      <feGaussianBlur in="SourceGraphic" stdDeviation="2" />
    </filter>
    <filter id="wc-leaf" x="-20%" y="-20%" width="140%" height="140%">
      <feGaussianBlur in="SourceGraphic" stdDeviation="0.8" />
    </filter>
  </defs>

  <!-- ===== STEMS growing upward from bottom-right ===== -->
  <g stroke-linecap="round" stroke-linejoin="round" filter="url(#wc-leaf)">
    <!-- Main stem rising from bottom-right -->
    <path d="M 420 500 C 405 460, 385 400, 370 330 C 360 280, 365 220, 380 150" stroke="#8BA078" stroke-width="2" opacity="0.55"/>
    <!-- Horizontal branch left -->
    <path d="M 500 440 C 460 445, 410 450, 350 458 C 300 464, 240 472, 170 485" stroke="#8BA078" stroke-width="1.8" opacity="0.5"/>
    <!-- Secondary branch -->
    <path d="M 440 470 C 400 435, 350 410, 290 420 C 250 426, 210 442, 160 460" stroke="#9CAF88" stroke-width="1.4" opacity="0.45"/>
    <!-- Rising branch -->
    <path d="M 400 380 C 360 370, 315 365, 270 380 C 240 390, 220 405, 190 425" stroke="#9CAF88" stroke-width="1.2" opacity="0.4"/>
    <!-- Upper branch -->
    <path d="M 390 300 C 360 305, 330 295, 300 305 C 280 312, 265 325, 250 340" stroke="#9CAF88" stroke-width="1" opacity="0.35"/>
    <!-- Small twig -->
    <path d="M 430 420 C 445 390, 450 360, 440 330" stroke="#8BA078" stroke-width="0.9" opacity="0.4"/>
    <!-- Upward twig -->
    <path d="M 460 500 C 450 470, 445 440, 452 405" stroke="#8BA078" stroke-width="1" opacity="0.4"/>
    <!-- Fine rising stems -->
    <path d="M 320 470 C 305 440, 290 400, 285 355" stroke="#9CAF88" stroke-width="0.8" opacity="0.3"/>
    <path d="M 250 485 C 240 460, 232 430, 238 395" stroke="#9CAF88" stroke-width="0.7" opacity="0.25"/>
  </g>

  <!-- ===== LEAVES ===== -->
  <g filter="url(#wc-leaf)">
    <!-- Leaves along main stem -->
    <path d="M 410 440 C 425 455, 445 450, 440 430 C 435 415, 420 420, 410 440Z" fill="#8BA078" opacity="0.25"/>
    <path d="M 405 410 C 390 425, 375 418, 385 400 C 392 388, 405 392, 405 410Z" fill="#9CAF88" opacity="0.22"/>
    <!-- Leaves along horizontal branch -->
    <path d="M 370 462 C 360 478, 342 475, 348 458 C 352 446, 368 448, 370 462Z" fill="#8BA078" opacity="0.22"/>
    <path d="M 315 470 C 305 484, 288 480, 294 464 C 299 453, 313 456, 315 470Z" fill="#9CAF88" opacity="0.2"/>
    <path d="M 260 480 C 252 492, 238 488, 242 474 C 246 464, 258 467, 260 480Z" fill="#8BA078" opacity="0.18"/>
    <path d="M 210 488 C 203 498, 192 494, 195 482 C 198 474, 209 476, 210 488Z" fill="#9CAF88" opacity="0.16"/>
    <!-- Leaves along secondary branch -->
    <path d="M 340 422 C 330 436, 315 432, 320 418 C 324 407, 338 410, 340 422Z" fill="#9CAF88" opacity="0.2"/>
    <path d="M 280 428 C 272 440, 260 435, 264 422 C 268 412, 278 416, 280 428Z" fill="#8BA078" opacity="0.18"/>
    <!-- Lower leaves on main stem -->
    <path d="M 375 340 C 360 352, 345 345, 355 330 C 362 320, 375 325, 375 340Z" fill="#9CAF88" opacity="0.2"/>
    <path d="M 385 270 C 400 282, 412 275, 405 260 C 400 250, 388 254, 385 270Z" fill="#8BA078" opacity="0.18"/>
    <path d="M 392 200 C 405 210, 415 204, 410 190 C 406 182, 394 186, 392 200Z" fill="#9CAF88" opacity="0.16"/>
    <!-- Eucalyptus-style round leaves -->
    <ellipse cx="450" cy="450" rx="8" ry="12" fill="#9CAF88" opacity="0.18" transform="rotate(40 450 450)"/>
    <ellipse cx="395" cy="360" rx="7" ry="11" fill="#8BA078" opacity="0.16" transform="rotate(15 395 360)"/>
    <ellipse cx="400" cy="240" rx="6" ry="10" fill="#9CAF88" opacity="0.14" transform="rotate(-5 400 240)"/>
    <ellipse cx="405" cy="160" rx="5" ry="9" fill="#8BA078" opacity="0.13" transform="rotate(-10 405 160)"/>
    <!-- Fern-like fronds -->
    <path d="M 435 475 C 445 485, 458 482, 452 470 C 448 462, 438 465, 435 475Z" fill="#7A9668" opacity="0.2"/>
    <path d="M 445 455 C 458 462, 468 456, 462 445 C 458 438, 448 442, 445 455Z" fill="#7A9668" opacity="0.18"/>
  </g>

  <!-- ===== FERN FRONDS ===== -->
  <g filter="url(#wc-soft)" opacity="0.22">
    <path d="M 380 485 C 375 475, 372 465, 370 452 M 375 478 L 382 482 M 373 470 L 380 472 M 371 462 L 378 463 M 370 455 L 376 454" stroke="#9CAF88" stroke-width="0.8" fill="none"/>
    <path d="M 345 475 C 342 465, 340 452, 342 438 M 344 468 L 350 470 M 342 460 L 348 461 M 341 450 L 347 450" stroke="#9CAF88" stroke-width="0.7" fill="none"/>
    <path d="M 300 415 C 290 405, 285 390, 288 375 M 295 408 L 302 410 M 290 398 L 297 399 M 288 388 L 294 387" stroke="#8BA078" stroke-width="0.7" fill="none"/>
  </g>

  <!-- ===== LAVENDER/PURPLE FLOWERS ===== -->
  <g filter="url(#wc)">
    <!-- Flower 1: large 5-petal lavender near bottom-right -->
    <path d="M 445 465 C 452 475, 462 472, 460 462 C 458 455, 450 458, 445 465Z" fill="#B8A9D9" opacity="0.45"/>
    <path d="M 445 465 C 438 475, 430 470, 434 460 C 437 453, 444 456, 445 465Z" fill="#C7BEE8" opacity="0.4"/>
    <path d="M 445 465 C 452 458, 458 450, 452 445 C 446 442, 444 452, 445 465Z" fill="#A899C8" opacity="0.38"/>
    <path d="M 445 465 C 438 458, 432 450, 436 445 C 442 442, 444 452, 445 465Z" fill="#B8A9D9" opacity="0.35"/>
    <path d="M 445 465 C 445 475, 448 482, 452 478 C 455 472, 450 466, 445 465Z" fill="#C7BEE8" opacity="0.42"/>
    <circle cx="445" cy="465" r="3" fill="#9B8EC4" opacity="0.4"/>

    <!-- Flower 2: on horizontal branch -->
    <path d="M 360 455 C 367 462, 374 458, 370 450 C 367 445, 362 448, 360 455Z" fill="#B8A9D9" opacity="0.42"/>
    <path d="M 360 455 C 353 462, 347 457, 351 450 C 354 445, 359 448, 360 455Z" fill="#C7BEE8" opacity="0.38"/>
    <path d="M 360 455 C 364 448, 368 442, 363 440 C 358 439, 359 447, 360 455Z" fill="#A899C8" opacity="0.35"/>
    <path d="M 360 455 C 356 448, 352 442, 356 440 C 361 439, 360 447, 360 455Z" fill="#B8A9D9" opacity="0.36"/>
    <circle cx="360" cy="455" r="2.5" fill="#9B8EC4" opacity="0.38"/>

    <!-- Flower 3: on secondary branch -->
    <path d="M 305 432 C 311 440, 319 436, 315 428 C 312 422, 307 426, 305 432Z" fill="#C7BEE8" opacity="0.38"/>
    <path d="M 305 432 C 299 440, 292 435, 296 428 C 299 422, 304 426, 305 432Z" fill="#B8A9D9" opacity="0.35"/>
    <path d="M 305 432 C 308 426, 312 420, 307 418 C 302 417, 304 425, 305 432Z" fill="#A899C8" opacity="0.32"/>
    <circle cx="305" cy="432" r="2" fill="#9B8EC4" opacity="0.35"/>

    <!-- Flower 4: on main stem -->
    <path d="M 385 325 C 392 332, 398 328, 396 320 C 393 314, 387 318, 385 325Z" fill="#B8A9D9" opacity="0.35"/>
    <path d="M 385 325 C 378 332, 372 327, 376 320 C 379 314, 384 318, 385 325Z" fill="#C7BEE8" opacity="0.32"/>
    <path d="M 385 325 C 388 318, 392 312, 387 310 C 382 309, 384 317, 385 325Z" fill="#A899C8" opacity="0.3"/>
    <circle cx="385" cy="325" r="2" fill="#9B8EC4" opacity="0.32"/>

    <!-- Flower 5: dangling -->
    <path d="M 240 452 C 246 458, 252 454, 248 448 C 245 444, 242 446, 240 452Z" fill="#C7BEE8" opacity="0.32"/>
    <path d="M 240 452 C 234 458, 229 453, 232 448 C 235 444, 239 446, 240 452Z" fill="#B8A9D9" opacity="0.3"/>
    <circle cx="240" cy="452" r="1.8" fill="#9B8EC4" opacity="0.3"/>

    <!-- Small buds -->
    <path d="M 190 470 C 194 475, 200 472, 196 467 C 193 464, 190 466, 190 470Z" fill="#B8A9D9" opacity="0.28"/>
    <path d="M 400 390 C 404 395, 410 392, 406 387 C 403 384, 400 386, 400 390Z" fill="#C7BEE8" opacity="0.3"/>
    <path d="M 335 445 C 338 450, 343 447, 340 443 C 338 440, 335 441, 335 445Z" fill="#B8A9D9" opacity="0.32"/>
    <path d="M 410 270 C 414 275, 420 272, 416 267 C 413 264, 410 266, 410 270Z" fill="#C7BEE8" opacity="0.28"/>
    <path d="M 395 170 C 399 175, 405 172, 401 167 C 398 164, 395 166, 395 170Z" fill="#B8A9D9" opacity="0.22"/>
  </g>

  <!-- ===== BLUE WILDFLOWERS ===== -->
  <g filter="url(#wc)">
    <!-- Blue flower 1 -->
    <path d="M 325 450 C 330 457, 337 454, 333 447 C 330 442, 326 444, 325 450Z" fill="#8BAFD0" opacity="0.35"/>
    <path d="M 325 450 C 320 457, 314 453, 317 447 C 320 442, 324 444, 325 450Z" fill="#A8C4E0" opacity="0.32"/>
    <circle cx="325" cy="450" r="1.8" fill="#6B94B8" opacity="0.3"/>

    <!-- Blue flower 2 -->
    <path d="M 270 455 C 274 461, 280 458, 276 452 C 273 448, 270 450, 270 455Z" fill="#8BAFD0" opacity="0.32"/>
    <path d="M 270 455 C 266 461, 261 457, 264 452 C 267 448, 270 450, 270 455Z" fill="#A8C4E0" opacity="0.3"/>
    <circle cx="270" cy="455" r="1.5" fill="#6B94B8" opacity="0.28"/>

    <!-- Blue flower 3 -->
    <path d="M 380 260 C 385 266, 392 262, 388 257 C 385 252, 381 254, 380 260Z" fill="#8BAFD0" opacity="0.3"/>
    <path d="M 380 260 C 375 266, 370 262, 373 257 C 376 252, 379 254, 380 260Z" fill="#A8C4E0" opacity="0.28"/>
    <circle cx="380" cy="260" r="1.5" fill="#6B94B8" opacity="0.26"/>

    <!-- Scattered blue buds -->
    <circle cx="220" cy="465" r="3.5" fill="#8BAFD0" opacity="0.25"/>
    <circle cx="290" cy="410" r="3" fill="#A8C4E0" opacity="0.22"/>
    <circle cx="415" cy="350" r="3" fill="#8BAFD0" opacity="0.25"/>
    <circle cx="345" cy="400" r="2.5" fill="#A8C4E0" opacity="0.22"/>
    <circle cx="405" cy="120" r="2.5" fill="#8BAFD0" opacity="0.18"/>
    <circle cx="260" cy="400" r="2" fill="#A8C4E0" opacity="0.2"/>
  </g>

  <!-- ===== TINY PURPLE ACCENT BUDS ===== -->
  <g filter="url(#wc)">
    <circle cx="425" cy="485" r="2.5" fill="#9B8EC4" opacity="0.35"/>
    <circle cx="390" cy="472" r="2" fill="#9B8EC4" opacity="0.3"/>
    <circle cx="340" cy="462" r="2" fill="#9B8EC4" opacity="0.28"/>
    <circle cx="205" cy="478" r="1.8" fill="#9B8EC4" opacity="0.25"/>
    <circle cx="370" cy="410" r="1.8" fill="#9B8EC4" opacity="0.25"/>
    <circle cx="320" cy="390" r="1.5" fill="#9B8EC4" opacity="0.2"/>
    <circle cx="400" cy="220" r="1.8" fill="#9B8EC4" opacity="0.2"/>
    <circle cx="412" cy="80" r="1.5" fill="#9B8EC4" opacity="0.16"/>
  </g>

  <!-- ===== BABY'S BREATH ===== -->
  <g filter="url(#wc-soft)">
    <circle cx="465" cy="430" r="2" fill="#E8E4F0" opacity="0.4"/>
    <circle cx="432" cy="445" r="1.8" fill="#E8E4F0" opacity="0.38"/>
    <circle cx="405" cy="458" r="1.5" fill="#E8E4F0" opacity="0.35"/>
    <circle cx="380" cy="440" r="1.8" fill="#E8E4F0" opacity="0.32"/>
    <circle cx="352" cy="465" r="1.5" fill="#E8E4F0" opacity="0.3"/>
    <circle cx="300" cy="455" r="1.3" fill="#E8E4F0" opacity="0.28"/>
    <circle cx="330" cy="428" r="1.5" fill="#E8E4F0" opacity="0.28"/>
    <circle cx="418" cy="400" r="1.3" fill="#E8E4F0" opacity="0.3"/>
    <circle cx="440" cy="370" r="1.5" fill="#E8E4F0" opacity="0.28"/>
    <circle cx="388" cy="345" r="1.2" fill="#E8E4F0" opacity="0.25"/>
    <circle cx="370" cy="375" r="1.3" fill="#E8E4F0" opacity="0.25"/>
    <circle cx="280" cy="432" r="1.2" fill="#E8E4F0" opacity="0.22"/>
    <circle cx="250" cy="470" r="1" fill="#E8E4F0" opacity="0.22"/>
    <circle cx="410" cy="140" r="1.2" fill="#E8E4F0" opacity="0.2"/>
    <circle cx="398" cy="190" r="1.3" fill="#E8E4F0" opacity="0.2"/>
    <circle cx="452" cy="405" r="1.8" fill="#E8E4F0" opacity="0.35"/>
    <circle cx="425" cy="332" r="1" fill="#E8E4F0" opacity="0.22"/>
    <circle cx="175" cy="480" r="1" fill="#E8E4F0" opacity="0.18"/>
  </g>
</svg>