<svg xmlns="http://www.w3.org/2000/svg" viewBox="0 0 400 500">
  <!-- Main stems - sage green -->
  <g stroke-linecap="round" stroke-linejoin="round">
    <path d="M 30 0 C 45 50, 70 120, 95 190 C 108 230, 100 280, 85 350" stroke="#7A9668" stroke-width="1.6" fill="none" opacity="0.45"/>
    <path d="M 0 30 C 25 22, 65 25, 100 22 C 135 19, 160 14, 185 5" stroke="#7A9668" stroke-width="1.2" fill="none" opacity="0.4"/>
    <path d="M 50 70 C 85 78, 125 84, 165 72 C 185 66, 210 52, 230 40" stroke="#9CAF88" stroke-width="1" fill="none" opacity="0.35"/>
    <path d="M 72 145 C 105 150, 140 155, 175 140 C 195 132, 210 118, 225 105" stroke="#9CAF88" stroke-width="0.9" fill="none" opacity="0.3"/>
    <path d="M 88 215 C 108 210, 130 218, 150 205" stroke="#9CAF88" stroke-width="0.7" fill="none" opacity="0.25"/>
    <!-- Wheat stems -->
    <path d="M 12 0 C 28 35, 48 80, 58 140" stroke="#D8C59F" stroke-width="1.1" fill="none" opacity="0.3"/>
    <path d="M 42 45 C 52 75, 60 105, 68 145" stroke="#D8C59F" stroke-width="0.8" fill="none" opacity="0.25"/>
  </g>

  <!-- Eucalyptus leaves -->
  <g>
    <ellipse cx="42" cy="50" rx="7" ry="15" fill="#9CAF88" opacity="0.18" transform="rotate(-45 42 50)"/>
    <ellipse cx="58" cy="90" rx="7" ry="16" fill="#8BA078" opacity="0.2" transform="rotate(-35 58 90)"/>
    <ellipse cx="78" cy="135" rx="7" ry="14" fill="#9CAF88" opacity="0.18" transform="rotate(-22 78 135)"/>
    <ellipse cx="92" cy="195" rx="7" ry="15" fill="#7A9668" opacity="0.16" transform="rotate(-12 92 195)"/>
    <ellipse cx="88" cy="255" rx="6" ry="13" fill="#9CAF88" opacity="0.14" transform="rotate(-5 88 255)"/>
    <ellipse cx="82" cy="310" rx="5" ry="11" fill="#8BA078" opacity="0.12" transform="rotate(5 82 310)"/>
    <ellipse cx="78" cy="26" rx="5" ry="10" fill="#9CAF88" opacity="0.16" transform="rotate(12 78 26)"/>
    <ellipse cx="118" cy="22" rx="5" ry="10" fill="#8BA078" opacity="0.15" transform="rotate(18 118 22)"/>
    <ellipse cx="148" cy="14" rx="4" ry="9" fill="#9CAF88" opacity="0.13" transform="rotate(22 148 14)"/>
    <ellipse cx="115" cy="78" rx="5" ry="10" fill="#9CAF88" opacity="0.15" transform="rotate(8 115 78)"/>
    <ellipse cx="150" cy="74" rx="4" ry="9" fill="#8BA078" opacity="0.13" transform="rotate(16 150 74)"/>
    <ellipse cx="192" cy="48" rx="4" ry="8" fill="#9CAF88" opacity="0.11" transform="rotate(24 192 48)"/>
    <ellipse cx="135" cy="150" rx="4" ry="9" fill="#9CAF88" opacity="0.13" transform="rotate(6 135 150)"/>
    <ellipse cx="170" cy="142" rx="4" ry="8" fill="#8BA078" opacity="0.11" transform="rotate(14 170 142)"/>
    <ellipse cx="48" cy="30" rx="4" ry="9" fill="#9CAF88" opacity="0.15" transform="rotate(-55 48 30)"/>
  </g>

  <!-- Lavender flower clusters -->
  <g>
    <!-- Large cluster near top-left -->
    <circle cx="35" cy="38" r="7" fill="#B8A9D9" opacity="0.28"/>
    <circle cx="46" cy="30" r="6" fill="#C7BEE8" opacity="0.26"/>
    <circle cx="28" cy="28" r="5.5" fill="#A899C8" opacity="0.24"/>
    <circle cx="40" cy="46" r="5" fill="#C7BEE8" opacity="0.23"/>
    <circle cx="52" cy="36" r="4.5" fill="#B8A9D9" opacity="0.22"/>
    <circle cx="32" cy="48" r="4" fill="#C7BEE8" opacity="0.2"/>
    <circle cx="22" cy="40" r="3.5" fill="#B8A9D9" opacity="0.2"/>
    <!-- Medium cluster on branch -->
    <circle cx="110" cy="68" r="5.5" fill="#B8A9D9" opacity="0.25"/>
    <circle cx="120" cy="62" r="5" fill="#C7BEE8" opacity="0.23"/>
    <circle cx="104" cy="64" r="4" fill="#A899C8" opacity="0.2"/>
    <circle cx="116" cy="74" r="3.5" fill="#C7BEE8" opacity="0.2"/>
    <!-- Cluster on main stem -->
    <circle cx="76" cy="160" r="4.5" fill="#C7BEE8" opacity="0.22"/>
    <circle cx="84" cy="154" r="4" fill="#B8A9D9" opacity="0.2"/>
    <circle cx="70" cy="154" r="3.5" fill="#A899C8" opacity="0.18"/>
    <!-- Scattered buds -->
    <circle cx="165" cy="58" r="3" fill="#B8A9D9" opacity="0.2"/>
    <circle cx="175" cy="48" r="2.5" fill="#C7BEE8" opacity="0.18"/>
    <circle cx="195" cy="42" r="2" fill="#B8A9D9" opacity="0.16"/>
    <circle cx="92" cy="275" r="3.5" fill="#B8A9D9" opacity="0.18"/>
    <circle cx="82" cy="285" r="3" fill="#C7BEE8" opacity="0.16"/>
    <circle cx="78" cy="340" r="2.5" fill="#B8A9D9" opacity="0.14"/>
    <circle cx="210" cy="45" r="2" fill="#C7BEE8" opacity="0.14"/>
    <circle cx="200" cy="100" r="2.5" fill="#B8A9D9" opacity="0.13"/>
  </g>

  <!-- Blue wildflowers -->
  <g>
    <circle cx="135" cy="85" r="4.5" fill="#8BAFD0" opacity="0.2"/>
    <circle cx="143" cy="80" r="3.5" fill="#A8C4E0" opacity="0.18"/>
    <circle cx="100" cy="205" r="4" fill="#8BAFD0" opacity="0.18"/>
    <circle cx="108" cy="200" r="3" fill="#A8C4E0" opacity="0.16"/>
    <circle cx="60" cy="100" r="3.5" fill="#A8C4E0" opacity="0.18"/>
    <circle cx="180" cy="42" r="3" fill="#8BAFD0" opacity="0.16"/>
    <circle cx="215" cy="98" r="3" fill="#A8C4E0" opacity="0.14"/>
    <circle cx="88" cy="235" r="2.8" fill="#8BAFD0" opacity="0.15"/>
    <circle cx="155" cy="130" r="2.5" fill="#A8C4E0" opacity="0.14"/>
  </g>

  <!-- Wheat heads -->
  <g>
    <ellipse cx="60" cy="135" rx="4" ry="10" fill="#D8C59F" opacity="0.2" transform="rotate(-12 60 135)"/>
    <ellipse cx="56" cy="120" rx="3.5" ry="9" fill="#D8C59F" opacity="0.18" transform="rotate(-18 56 120)"/>
    <ellipse cx="52" cy="108" rx="3" ry="8" fill="#D8C59F" opacity="0.16" transform="rotate(-22 52 108)"/>
    <ellipse cx="48" cy="96" rx="2.5" ry="6" fill="#D8C59F" opacity="0.14" transform="rotate(-28 48 96)"/>
    <ellipse cx="68" cy="142" rx="3" ry="7" fill="#D8C59F" opacity="0.16" transform="rotate(-5 68 142)"/>
    <ellipse cx="64" cy="150" rx="2.5" ry="6" fill="#D8C59F" opacity="0.14" transform="rotate(0 64 150)"/>
  </g>

  <!-- Baby's breath micro dots -->
  <g>
    <circle cx="25" cy="80" r="1.8" fill="#EEEAF3" opacity="0.32"/>
    <circle cx="65" cy="58" r="1.5" fill="#EEEAF3" opacity="0.28"/>
    <circle cx="90" cy="100" r="1.3" fill="#EEEAF3" opacity="0.25"/>
    <circle cx="105" cy="122" r="1.5" fill="#EEEAF3" opacity="0.22"/>
    <circle cx="54" cy="190" r="1.3" fill="#EEEAF3" opacity="0.22"/>
    <circle cx="145" cy="68" r="1.2" fill="#EEEAF3" opacity="0.2"/>
    <circle cx="128" cy="138" r="1.5" fill="#EEEAF3" opacity="0.2"/>
    <circle cx="40" cy="142" r="1.3" fill="#EEEAF3" opacity="0.22"/>
    <circle cx="68" cy="248" r="1.2" fill="#EEEAF3" opacity="0.18"/>
    <circle cx="98" cy="42" r="1.3" fill="#EEEAF3" opacity="0.22"/>
    <circle cx="158" cy="28" r="1" fill="#EEEAF3" opacity="0.18"/>
    <circle cx="192" cy="55" r="1.2" fill="#EEEAF3" opacity="0.18"/>
    <circle cx="72" cy="172" r="1" fill="#EEEAF3" opacity="0.2"/>
    <circle cx="92" cy="305" r="1.3" fill="#EEEAF3" opacity="0.16"/>
    <circle cx="120" cy="48" r="1" fill="#EEEAF3" opacity="0.2"/>
    <circle cx="178" cy="68" r="1.2" fill="#EEEAF3" opacity="0.16"/>
  </g>

  <!-- Small purple accent buds -->
  <g>
    <circle cx="188" cy="25" r="2.2" fill="#9B8EC4" opacity="0.18"/>
    <circle cx="68" cy="265" r="2" fill="#9B8EC4" opacity="0.16"/>
    <circle cx="115" cy="35" r="2" fill="#9B8EC4" opacity="0.18"/>
    <circle cx="155" cy="95" r="1.8" fill="#9B8EC4" opacity="0.15"/>
    <circle cx="210" cy="38" r="1.5" fill="#9B8EC4" opacity="0.13"/>
    <circle cx="130" cy="110" r="1.5" fill="#9B8EC4" opacity="0.14"/>
  </g>
</svg>
